<svg version="1.1" preserveAspectRatio="none" xmlns="http://www.w3.org/2000/svg" width="500" height="500" viewBox="0 0 500 500"><rect width="100%" height="100%" fill="#121212" fill-opacity="1"/><svg viewBox="-29.4549 -16.3766 392.3535 297.1522" width="333" height="252.2003310789887" x="83.5px" y="123.8998px" xmlns="http://www.w3.org/2000/svg" xmlns:xlink="http://www.w3.org/1999/xlink" preserveAspectRatio="none"><defs></defs><style>.companyName {fill:#E3E3E3;fill-opacity:1;}.icon1 {fill:#F1EC40;fill-opacity:1;}.icon2 {fill:#555555;fill-opacity:1;}.icon3 {fill:#AAAAAA;fill-opacity:1;}.icon3-str {stroke:#AAAAAA;stroke-opacity:1;}.text {fill:#E3E3E3;fill-opacity:1;}</style><g opacity="1" transform="rotate(0 86.2809 262.7756)">
<svg width="160.8819" height="18" x="86.2809" y="262.7756" version="1.1" preserveAspectRatio="none" viewBox="0.36 -28 321.03999999999996 35.92">
  <g transform="matrix(1 0 0 1 0 0)" class="text"><path id="id-6izo4zJp13" d="M19.16-22.24L12 0L8.60 0L0.36-26.48L3.52-26.48L10.32-4.24L17.44-26.48L20.88-26.48L28-4.24L34.80-26.48L37.96-26.48L29.72 0L26.32 0L19.16-22.24Z M52.52-2.40L52.52-2.40Q56.56-2.40 58.32-5.76L58.32-5.76L61.60-5.76Q60.56-3.04 58.30-1.36Q56.04 0.32 52.48 0.32L52.48 0.32Q47.96 0.32 45.12-2.68L45.12-2.68Q42.36-5.60 42.36-10L42.36-10Q42.36-14.44 45-17.32L45-17.32Q47.80-20.32 52.28-20.32L52.28-20.32Q56.76-20.32 59.56-17.32L59.56-17.32Q62.20-14.44 62.20-10L62.20-10L62.20-8.80L45.44-8.80Q45.76-6.04 47.64-4.24L47.64-4.24Q49.56-2.40 52.52-2.40ZM52.28-17.60L52.28-17.60Q49.52-17.60 47.64-15.88L47.64-15.88Q45.88-14.24 45.48-11.60L45.48-11.60L59.08-11.60Q58.68-14.24 56.92-15.88L56.92-15.88Q55.04-17.60 52.28-17.60Z M72.88-28L72.88-16.76Q75.32-20.32 80.04-20.32L80.04-20.32Q84.36-20.32 87.04-17.32L87.04-17.32Q89.72-14.36 89.72-10L89.72-10Q89.72-5.64 87.04-2.68L87.04-2.68Q84.36 0.32 79.82 0.32Q75.28 0.32 72.88-3.20L72.88-3.20L72.88 0L69.88 0L69.88-28L72.88-28ZM79.64-2.40L79.64-2.40Q82.84-2.40 84.84-4.64L84.84-4.64Q86.72-6.76 86.72-10L86.72-10Q86.72-13.24 84.84-15.36L84.84-15.36Q82.84-17.60 79.64-17.60L79.64-17.60Q76.40-17.60 74.52-15.36L74.52-15.36Q72.72-13.24 72.72-10L72.72-10Q72.72-6.76 74.52-4.64L74.52-4.64Q76.40-2.40 79.64-2.40Z M110.80-26.48L121.96-26.48Q124.32-26.48 126.52-25.58Q128.72-24.68 130.40-22.96L130.40-22.96Q134.12-19.16 134.12-13.24L134.12-13.24Q134.12-7.32 130.40-3.52L130.40-3.52Q128.72-1.80 126.52-0.90Q124.32 0 121.96 0L121.96 0L110.80 0L110.80-26.48ZM113.80-2.84L121.84-2.84Q126-2.84 128.60-5.92L128.60-5.92Q131.12-8.88 131.12-13.24L131.12-13.24Q131.12-17.60 128.60-20.56L128.60-20.56Q126-23.64 121.84-23.64L121.84-23.64L113.80-23.64L113.80-2.84Z M151.24-2.40L151.24-2.40Q155.28-2.40 157.04-5.76L157.04-5.76L160.32-5.76Q159.28-3.04 157.02-1.36Q154.76 0.32 151.20 0.32L151.20 0.32Q146.68 0.32 143.84-2.68L143.84-2.68Q141.08-5.60 141.08-10L141.08-10Q141.08-14.44 143.72-17.32L143.72-17.32Q146.52-20.32 151-20.32L151-20.32Q155.48-20.32 158.28-17.32L158.28-17.32Q160.92-14.44 160.92-10L160.92-10L160.92-8.80L144.16-8.80Q144.48-6.04 146.36-4.24L146.36-4.24Q148.28-2.40 151.24-2.40ZM151-17.60L151-17.60Q148.24-17.60 146.36-15.88L146.36-15.88Q144.60-14.24 144.20-11.60L144.20-11.60L157.80-11.60Q157.40-14.24 155.64-15.88L155.64-15.88Q153.76-17.60 151-17.60Z M181.92-20L185.20-20L177.40 0L173.88 0L166.04-20L169.32-20L175.64-3.20L181.92-20Z M200.68-2.40L200.68-2.40Q204.72-2.40 206.48-5.76L206.48-5.76L209.76-5.76Q208.72-3.04 206.46-1.36Q204.20 0.32 200.64 0.32L200.64 0.32Q196.12 0.32 193.28-2.68L193.28-2.68Q190.52-5.60 190.52-10L190.52-10Q190.52-14.44 193.16-17.32L193.16-17.32Q195.96-20.32 200.44-20.32L200.44-20.32Q204.92-20.32 207.72-17.32L207.72-17.32Q210.36-14.44 210.36-10L210.36-10L210.36-8.80L193.60-8.80Q193.92-6.04 195.80-4.24L195.80-4.24Q197.72-2.40 200.68-2.40ZM200.44-17.60L200.44-17.60Q197.68-17.60 195.80-15.88L195.80-15.88Q194.04-14.24 193.64-11.60L193.64-11.60L207.24-11.60Q206.84-14.24 205.08-15.88L205.08-15.88Q203.20-17.60 200.44-17.60Z M221.04-28L221.04 0L218.04 0L218.04-28L221.04-28Z M238.92-20.32L238.92-20.32Q243.40-20.32 246.20-17.32L246.20-17.32Q248.84-14.44 248.84-10L248.84-10Q248.84-5.56 246.20-2.68L246.20-2.68Q243.40 0.32 238.92 0.32L238.92 0.32Q234.44 0.32 231.64-2.68L231.64-2.68Q229-5.56 229-10L229-10Q229-14.44 231.64-17.32L231.64-17.32Q234.44-20.32 238.92-20.32ZM238.92-2.40L238.92-2.40Q242.16-2.40 244.04-4.64L244.04-4.64Q245.84-6.76 245.84-10L245.84-10Q245.84-13.24 244.04-15.36L244.04-15.36Q242.16-17.60 238.92-17.60L238.92-17.60Q235.68-17.60 233.80-15.36L233.80-15.36Q232-13.24 232-10L232-10Q232-6.76 233.80-4.64L233.80-4.64Q235.68-2.40 238.92-2.40Z M259.80-20L259.80-16.80Q262.20-20.32 266.96-20.32L266.96-20.32Q271.28-20.32 273.96-17.32L273.96-17.32Q276.64-14.36 276.64-10L276.64-10Q276.64-5.64 273.96-2.68L273.96-2.68Q271.28 0.32 266.76 0.32Q262.24 0.32 259.80-3.24L259.80-3.24L259.80 7.92L256.80 7.92L256.80-20L259.80-20ZM266.56-17.60L266.56-17.60Q263.32-17.60 261.44-15.36L261.44-15.36Q259.64-13.24 259.64-10L259.64-10Q259.64-6.76 261.44-4.64L261.44-4.64Q263.32-2.40 266.56-2.40L266.56-2.40Q269.76-2.40 271.76-4.64L271.76-4.64Q273.64-6.76 273.64-10L273.64-10Q273.64-13.24 271.76-15.36L271.76-15.36Q269.76-17.60 266.56-17.60Z M293.48-2.40L293.48-2.40Q297.52-2.40 299.28-5.76L299.28-5.76L302.56-5.76Q301.52-3.04 299.26-1.36Q297 0.32 293.44 0.32L293.44 0.32Q288.92 0.32 286.08-2.68L286.08-2.68Q283.32-5.60 283.32-10L283.32-10Q283.32-14.44 285.96-17.32L285.96-17.32Q288.76-20.32 293.24-20.32L293.24-20.32Q297.72-20.32 300.52-17.32L300.52-17.32Q303.16-14.44 303.16-10L303.16-10L303.16-8.80L286.40-8.80Q286.72-6.04 288.60-4.24L288.60-4.24Q290.52-2.40 293.48-2.40ZM293.24-17.60L293.24-17.60Q290.48-17.60 288.60-15.88L288.60-15.88Q286.84-14.24 286.44-11.60L286.44-11.60L300.04-11.60Q299.64-14.24 297.88-15.88L297.88-15.88Q296-17.60 293.24-17.60Z M321.20-20.32L321.40-20.32L321.40-17.32L321.04-17.32Q317.80-17.32 315.76-14.72L315.76-14.72Q313.84-12.24 313.84-8.80L313.84-8.80L313.84 0L310.84 0L310.84-20L313.84-20L313.84-15.08Q314.80-18.20 318-19.68L318-19.68Q319.32-20.32 321.20-20.32L321.20-20.32Z"/></g>
</svg>
</g><g opacity="1" transform="rotate(0 -29.4549 218.7756)">
<svg width="392.3535" height="24" x="-29.4549" y="218.7756" version="1.1" preserveAspectRatio="none" viewBox="2.9102 -28.3984 470.6445 28.7891">
  <g transform="matrix(1 0 0 1 0 0)" class="companyName"><path id="id-D6z1nYkh16" d="M30.90-16.29L30.90-11.72Q30.90-9.16 30.01-7.01Q29.12-4.86 27.56-3.31Q26.00-1.76 23.85-0.88Q21.70 0 19.18 0L19.18 0L5.47 0Q4.92 0 4.45-0.20Q3.98-0.39 3.64-0.73Q3.30-1.07 3.11-1.54Q2.91-2.01 2.91-2.56L2.91-2.56L2.91-25.45Q2.91-25.98 3.11-26.45Q3.30-26.91 3.64-27.27Q3.98-27.62 4.45-27.81Q4.92-28.01 5.47-28.01L5.47-28.01L19.18-28.01Q21.70-28.01 23.85-27.13Q26.00-26.25 27.56-24.70Q29.12-23.14 30.01-20.99Q30.90-18.83 30.90-16.29L30.90-16.29ZM25.82-11.72L25.82-16.29Q25.82-17.77 25.34-19.00Q24.86-20.23 23.98-21.10Q23.11-21.97 21.88-22.45Q20.66-22.93 19.18-22.93L19.18-22.93L7.99-22.93L7.99-5.08L19.18-5.08Q20.66-5.08 21.88-5.56Q23.11-6.04 23.98-6.90Q24.86-7.77 25.34-8.99Q25.82-10.21 25.82-11.72L25.82-11.72Z M41.00-28.01L41.00-16.56L58.83-16.56L58.83-28.01L63.91-28.01L63.91 0L58.83 0L58.83-11.45L41.00-11.45L41.00 0L35.92 0L35.92-28.01L41.00-28.01Z M97.32-25.45L97.32 0L92.25 0L92.25-6.88L74.39-6.88L74.39 0L69.32 0L69.32-14.00Q69.32-17.07 70.37-19.65Q71.43-22.23 73.30-24.08Q75.18-25.94 77.73-26.97Q80.29-28.01 83.32-28.01L83.32-28.01L94.77-28.01Q95.29-28.01 95.76-27.81Q96.23-27.62 96.58-27.27Q96.93-26.91 97.13-26.45Q97.32-25.98 97.32-25.45L97.32-25.45ZM74.39-14.00L74.39-11.95L92.25-11.95L92.25-22.93L83.32-22.93Q83.09-22.93 82.33-22.86Q81.58-22.79 80.60-22.52Q79.61-22.25 78.52-21.68Q77.42-21.11 76.50-20.12Q75.59-19.12 74.99-17.63Q74.39-16.13 74.39-14.00L74.39-14.00Z M131.21-28.01L131.21-2.17Q131.21-1.62 131.01-1.15Q130.80-0.68 130.46-0.34Q130.12 0 129.65 0.20Q129.18 0.39 128.65 0.39L128.65 0.39Q128.18 0.39 127.71 0.21Q127.23 0.04 126.86-0.35L126.86-0.35L108.30-19.73L108.30 0L103.22 0L103.22-25.84Q103.22-26.62 103.66-27.26Q104.10-27.89 104.79-28.20L104.79-28.20Q105.51-28.50 106.27-28.35Q107.03-28.20 107.58-27.64L107.58-27.64L126.13-8.28L126.13-28.01L131.21-28.01Z M164.59-25.45L164.59 0L159.51 0L159.51-6.88L141.66-6.88L141.66 0L136.58 0L136.58-14.00Q136.58-17.07 137.64-19.65Q138.69-22.23 140.57-24.08Q142.44-25.94 145-26.97Q147.56-28.01 150.59-28.01L150.59-28.01L162.03-28.01Q162.56-28.01 163.03-27.81Q163.50-27.62 163.85-27.27Q164.20-26.91 164.39-26.45Q164.59-25.98 164.59-25.45L164.59-25.45ZM141.66-14.00L141.66-11.95L159.51-11.95L159.51-22.93L150.59-22.93Q150.35-22.93 149.60-22.86Q148.85-22.79 147.86-22.52Q146.88-22.25 145.78-21.68Q144.69-21.11 143.77-20.12Q142.85-19.12 142.26-17.63Q141.66-16.13 141.66-14.00L141.66-14.00Z M197.40-8.24L197.40-8.24Q197.40-6.74 197.02-5.54Q196.64-4.34 196.02-3.42Q195.39-2.50 194.55-1.86Q193.71-1.21 192.81-0.80Q191.91-0.39 190.99-0.20Q190.06 0 189.24 0L189.24 0L169.65 0L169.65-5.08L189.24-5.08Q190.70-5.08 191.51-5.94Q192.32-6.80 192.32-8.24L192.32-8.24Q192.32-8.95 192.11-9.53Q191.89-10.12 191.49-10.55Q191.09-10.98 190.52-11.21Q189.94-11.45 189.24-11.45L189.24-11.45L177.56-11.45Q176.33-11.45 174.90-11.88Q173.48-12.32 172.26-13.30Q171.04-14.28 170.22-15.86Q169.41-17.44 169.41-19.73L169.41-19.73Q169.41-22.01 170.22-23.58Q171.04-25.16 172.26-26.14Q173.48-27.13 174.90-27.57Q176.33-28.01 177.56-28.01L177.56-28.01L194.84-28.01L194.84-22.93L177.56-22.93Q176.11-22.93 175.30-22.05Q174.49-21.17 174.49-19.73L174.49-19.73Q174.49-18.26 175.30-17.41Q176.11-16.56 177.56-16.56L177.56-16.56L189.24-16.56L189.28-16.56Q190.10-16.54 191.02-16.34Q191.93-16.13 192.84-15.70Q193.75-15.27 194.57-14.62Q195.39-13.96 196.03-13.05Q196.66-12.13 197.03-10.94Q197.40-9.75 197.40-8.24Z M206.74-28.01L206.74-16.56L224.57-16.56L224.57-28.01L229.65-28.01L229.65 0L224.57 0L224.57-11.45L206.74-11.45L206.74 0L201.66 0L201.66-28.01L206.74-28.01Z M263.57-21.84L263.57-18.59Q263.57-16.86 263.14-15.49Q262.71-14.12 261.98-13.08Q261.25-12.03 260.29-11.29Q259.34-10.55 258.29-10.07Q257.25-9.59 256.18-9.38Q255.12-9.16 254.18-9.16L254.18-9.16L264.79 0L256.93 0L246.35-9.16L242.70-9.16L242.70-14.24L254.18-14.24Q255.14-14.32 255.93-14.64Q256.72-14.96 257.29-15.51Q257.87-16.05 258.18-16.83Q258.50-17.60 258.50-18.59L258.50-18.59L258.50-21.80Q258.50-22.23 258.39-22.45Q258.28-22.68 258.12-22.78Q257.95-22.89 257.76-22.91Q257.58-22.93 257.42-22.93L257.42-22.93L240.66-22.93L240.66 0L235.59 0L235.59-25.45Q235.59-25.98 235.78-26.45Q235.98-26.91 236.32-27.27Q236.66-27.62 237.13-27.81Q237.60-28.01 238.14-28.01L238.14-28.01L257.42-28.01Q259.12-28.01 260.29-27.39Q261.46-26.78 262.20-25.85Q262.93-24.92 263.25-23.85Q263.57-22.77 263.57-21.84L263.57-21.84Z M291.70-16.56L291.70-11.45L275.66-11.45L275.66-16.56L291.70-16.56ZM293.98-5.08L293.98 0L275.66 0Q274.61 0 273.36-0.37Q272.11-0.74 271.04-1.59Q269.98-2.44 269.27-3.80Q268.55-5.16 268.55-7.13L268.55-7.13L268.55-25.45Q268.55-25.98 268.75-26.45Q268.95-26.91 269.29-27.27Q269.63-27.62 270.10-27.81Q270.57-28.01 271.11-28.01L271.11-28.01L293.98-28.01L293.98-22.93L273.63-22.93L273.63-7.13Q273.63-6.13 274.16-5.61Q274.69-5.08 275.70-5.08L275.70-5.08L293.98-5.08Z M321.91-16.56L321.91-11.45L305.88-11.45L305.88-16.56L321.91-16.56ZM324.20-5.08L324.20 0L305.88 0Q304.82 0 303.57-0.37Q302.32-0.74 301.26-1.59Q300.20-2.44 299.48-3.80Q298.77-5.16 298.77-7.13L298.77-7.13L298.77-25.45Q298.77-25.98 298.96-26.45Q299.16-26.91 299.50-27.27Q299.84-27.62 300.31-27.81Q300.78-28.01 301.33-28.01L301.33-28.01L324.20-28.01L324.20-22.93L303.85-22.93L303.85-7.13Q303.85-6.13 304.38-5.61Q304.90-5.08 305.92-5.08L305.92-5.08L324.20-5.08Z M370.02-18.59L370.02-16.29Q370.02-14.55 369.59-13.18Q369.16-11.82 368.43-10.77Q367.70-9.73 366.74-8.98Q365.78-8.24 364.74-7.77Q363.69-7.30 362.63-7.09Q361.56-6.88 360.63-6.88L360.63-6.88L349.14-6.88L349.14-11.95L360.63-11.95Q361.60-12.03 362.39-12.35Q363.18-12.68 363.75-13.22Q364.32-13.77 364.63-14.54Q364.94-15.31 364.94-16.29L364.94-16.29L364.94-18.59Q364.84-19.55 364.53-20.35Q364.22-21.15 363.68-21.72Q363.14-22.29 362.38-22.61Q361.62-22.93 360.63-22.93L360.63-22.93L349.18-22.93Q348.16-22.93 347.64-22.40Q347.11-21.88 347.11-20.88L347.11-20.88L347.11 0L342.03 0L342.03-20.88Q342.03-22.83 342.74-24.20Q343.46-25.57 344.52-26.41Q345.59-27.25 346.84-27.63Q348.09-28.01 349.14-28.01L349.14-28.01L360.63-28.01Q362.34-28.01 363.71-27.57Q365.08-27.13 366.12-26.40Q367.17-25.66 367.90-24.71Q368.63-23.75 369.11-22.71Q369.59-21.66 369.80-20.60Q370.02-19.53 370.02-18.59L370.02-18.59Z M401.84-25.45L401.84 0L396.76 0L396.76-6.88L378.91-6.88L378.91 0L373.83 0L373.83-14.00Q373.83-17.07 374.88-19.65Q375.94-22.23 377.81-24.08Q379.69-25.94 382.25-26.97Q384.80-28.01 387.83-28.01L387.83-28.01L399.28-28.01Q399.80-28.01 400.27-27.81Q400.74-27.62 401.09-27.27Q401.45-26.91 401.64-26.45Q401.84-25.98 401.84-25.45L401.84-25.45ZM378.91-14.00L378.91-11.95L396.76-11.95L396.76-22.93L387.83-22.93Q387.60-22.93 386.85-22.86Q386.09-22.79 385.11-22.52Q384.12-22.25 383.03-21.68Q381.93-21.11 381.02-20.12Q380.10-19.12 379.50-17.63Q378.91-16.13 378.91-14.00L378.91-14.00Z M433.05-28.01L433.05-22.93L421.86-22.93L421.86 0L416.78 0L416.78-22.93L405.57-22.93L405.57-28.01L433.05-28.01Z M441.89-28.01L441.89 0L436.82 0L436.82-28.01L441.89-28.01Z M473.55-5.08L473.55 0L450.39 0Q449.84 0 449.38-0.20Q448.91-0.39 448.56-0.73Q448.22-1.07 448.03-1.54Q447.83-2.01 447.83-2.56L447.83-2.56L447.83-28.01L452.91-28.01L452.91-5.08L473.55-5.08Z"/></g>
</svg>
</g><g opacity="1" transform="rotate(0 68.6335 -16.3766)">
<svg width="196.1768" height="205.1522" x="68.6335" y="-16.3766" version="1.1" preserveAspectRatio="none" viewBox="23.500484466552734 19.99945068359375 152.99961853027344 160.0001678466797">
  <g transform="matrix(1 0 0 1 0 0)"><g><path d="M37.98 93.585c7.564-43.052 38.031-76.48 77.279-73.387 39.249 3.093 51.538 34.411 40.177 76.488-10.845 40.166 2.916 86.259-36.332 83.166-21.156-1.667-61.889-14.755-73.625-32.084-10.037-14.822-11.676-30.413-7.499-54.183z" data-color="1" class="icon1"></path><path d="M123.806 113.945c.037-14.251 19.777-39.602 33.941-41.074 14.163-1.471 26.723 36.689 12.491 36.251-17.461-.537 4.856 36.054-8.295 38.41-7.554 1.353-12.825-3.356-18.071-8.165-4.49-4.113-20.086-17.554-20.066-25.422z" data-color="2" class="icon2"></path><path d="M64.412 78.234c-13.27 6.224-28.926 3.483-36.634-9.223s-5.114-31.924 8.719-36.785c13.204-4.641 28.926-3.483 36.634 9.223 4.154 6.847 2.621 13.563.497 20.621-1.817 6.038-1.889 12.728-9.216 16.164z" data-color="3" class="icon3"></path></g></g>
</svg>
</g></svg></svg>