<svg version="1.1" preserveAspectRatio="none" xmlns="http://www.w3.org/2000/svg" width="500" height="500" viewBox="0 0 500 500"><rect width="100%" height="100%" fill="#F7F7F7" fill-opacity="1"/><svg viewBox="19.2515 109.2526 438.7277 144.4" width="333" height="109.60146806322007" x="83.5px" y="195.1993px" xmlns="http://www.w3.org/2000/svg" xmlns:xlink="http://www.w3.org/1999/xlink" preserveAspectRatio="none"><defs></defs><style>.companyName {fill:#282727;fill-opacity:1;}.icon3-str {stroke:#E17350;stroke-opacity:1;}.shape {fill:#F3CCD5;fill-opacity:0.95;}.shapeStroke-str {stroke:#282727;stroke-opacity:0.1;}.text {fill:#282727;fill-opacity:1;}</style><g opacity="1" transform="rotate(0 19.2515 109.2526)">
<svg width="144.4" height="144.4" x="19.2515" y="109.2526" version="1.1" preserveAspectRatio="none" viewBox="0 0 144.4 144.4">
  <defs><rect x="0" y="0" width="144.4" height="144.4" rx="0px" ry="0px" id="id-o0jQam8yd1741041592082"></rect></defs><use class="shape shapeStroke-str" style="stroke-width:0;" xlink:href="#id-o0jQam8yd1741041592082"></use>
</svg>
</g><g opacity="1" transform="rotate(0 59.2515 199.2526)">
<svg width="152.7638" height="14.4" x="59.2515" y="199.2526" version="1.1" preserveAspectRatio="none" viewBox="2.08 -29.68 399.20000000000005 37.64">
  <g transform="matrix(1 0 0 1 0 0)" class="text"><path id="id-6izo4zJp18" d="M16.72 0.24Q12.56 0.24 9.22-1.60Q5.88-3.44 3.98-6.70Q2.08-9.96 2.08-14L2.08-14Q2.08-18.04 3.98-21.30Q5.88-24.56 9.24-26.40Q12.60-28.24 16.76-28.24L16.76-28.24Q19.88-28.24 22.52-27.20Q25.16-26.16 27-24.16L27-24.16L25.12-22.28Q21.84-25.60 16.84-25.60L16.84-25.60Q13.52-25.60 10.80-24.08Q8.08-22.56 6.54-19.92Q5-17.28 5-14L5-14Q5-10.72 6.54-8.08Q8.08-5.44 10.80-3.92Q13.52-2.40 16.84-2.40L16.84-2.40Q21.88-2.40 25.12-5.76L25.12-5.76L27-3.88Q25.16-1.88 22.50-0.82Q19.84 0.24 16.72 0.24L16.72 0.24Z M42 0.20Q38.96 0.20 36.52-1.18Q34.08-2.56 32.68-5Q31.28-7.44 31.28-10.52L31.28-10.52Q31.28-13.60 32.68-16.04Q34.08-18.48 36.52-19.84Q38.96-21.20 42-21.20L42-21.20Q45.04-21.20 47.48-19.84Q49.92-18.48 51.30-16.04Q52.68-13.60 52.68-10.52L52.68-10.52Q52.68-7.44 51.30-5Q49.92-2.56 47.48-1.18Q45.04 0.20 42 0.20L42 0.20ZM42-2.32Q44.24-2.32 46.02-3.34Q47.80-4.36 48.80-6.24Q49.80-8.12 49.80-10.52L49.80-10.52Q49.80-12.92 48.80-14.80Q47.80-16.68 46.02-17.70Q44.24-18.72 42-18.72L42-18.72Q39.76-18.72 37.98-17.70Q36.20-16.68 35.18-14.80Q34.16-12.92 34.16-10.52L34.16-10.52Q34.16-8.12 35.18-6.24Q36.20-4.36 37.98-3.34Q39.76-2.32 42-2.32L42-2.32Z M76.44-29.68L79.28-29.68L79.28 0L76.56 0L76.56-4.16Q75.28-2.04 73.18-0.92Q71.08 0.20 68.44 0.20L68.44 0.20Q65.48 0.20 63.08-1.16Q60.68-2.52 59.32-4.96Q57.96-7.40 57.96-10.52L57.96-10.52Q57.96-13.64 59.32-16.08Q60.68-18.52 63.08-19.86Q65.48-21.20 68.44-21.20L68.44-21.20Q71-21.20 73.06-20.14Q75.12-19.08 76.44-17.04L76.44-17.04L76.44-29.68ZM68.68-2.32Q70.88-2.32 72.66-3.34Q74.44-4.36 75.46-6.24Q76.48-8.12 76.48-10.52L76.48-10.52Q76.48-12.92 75.46-14.80Q74.44-16.68 72.66-17.70Q70.88-18.72 68.68-18.72L68.68-18.72Q66.44-18.72 64.66-17.70Q62.88-16.68 61.86-14.80Q60.84-12.92 60.84-10.52L60.84-10.52Q60.84-8.12 61.86-6.24Q62.88-4.36 64.66-3.34Q66.44-2.32 68.68-2.32L68.68-2.32Z M88.80 0L88.80-21.04L91.64-21.04L91.64 0L88.80 0ZM90.24-25.64Q89.36-25.64 88.76-26.24Q88.16-26.84 88.16-27.68L88.16-27.68Q88.16-28.48 88.76-29.08Q89.36-29.68 90.24-29.68L90.24-29.68Q91.12-29.68 91.72-29.10Q92.32-28.52 92.32-27.72L92.32-27.72Q92.32-26.84 91.72-26.24Q91.12-25.64 90.24-25.64L90.24-25.64Z M111.88-21.20Q115.84-21.20 118.18-18.90Q120.52-16.60 120.52-12.20L120.52-12.20L120.52 0L117.68 0L117.68-11.92Q117.68-15.20 116.04-16.92Q114.40-18.64 111.36-18.64L111.36-18.64Q107.96-18.64 105.98-16.62Q104-14.60 104-11.04L104-11.04L104 0L101.16 0L101.16-21.04L103.88-21.04L103.88-17.16Q105.04-19.08 107.10-20.14Q109.16-21.20 111.88-21.20L111.88-21.20Z M146.68-21.04L149.40-21.04L149.40-2.56Q149.40 2.80 146.78 5.38Q144.16 7.96 138.88 7.96L138.88 7.96Q135.96 7.96 133.34 7.10Q130.72 6.24 129.08 4.72L129.08 4.72L130.52 2.56Q132.04 3.92 134.22 4.68Q136.40 5.44 138.80 5.44L138.80 5.44Q142.80 5.44 144.68 3.58Q146.56 1.72 146.56-2.20L146.56-2.20L146.56-4.88Q145.24-2.88 143.10-1.84Q140.96-0.80 138.36-0.80L138.36-0.80Q135.40-0.80 132.98-2.10Q130.56-3.40 129.18-5.74Q127.80-8.08 127.80-11.04L127.80-11.04Q127.80-14 129.18-16.32Q130.56-18.64 132.96-19.92Q135.36-21.20 138.36-21.20L138.36-21.20Q141.04-21.20 143.20-20.12Q145.36-19.04 146.68-17L146.68-17L146.68-21.04ZM138.64-3.32Q140.92-3.32 142.76-4.30Q144.60-5.28 145.62-7.04Q146.64-8.80 146.64-11.04L146.64-11.04Q146.64-13.28 145.62-15.02Q144.60-16.76 142.78-17.74Q140.96-18.72 138.64-18.72L138.64-18.72Q136.36-18.72 134.54-17.76Q132.72-16.80 131.70-15.04Q130.68-13.28 130.68-11.04L130.68-11.04Q130.68-8.80 131.70-7.04Q132.72-5.28 134.54-4.30Q136.36-3.32 138.64-3.32L138.64-3.32Z M192.44-28L181.24-9.68L181.24 0L178.32 0L178.32-9.68L167.12-28L170.28-28L179.88-12.28L189.48-28L192.44-28Z M204.24 0.20Q201.20 0.20 198.76-1.18Q196.32-2.56 194.92-5Q193.52-7.44 193.52-10.52L193.52-10.52Q193.52-13.60 194.92-16.04Q196.32-18.48 198.76-19.84Q201.20-21.20 204.24-21.20L204.24-21.20Q207.28-21.20 209.72-19.84Q212.16-18.48 213.54-16.04Q214.92-13.60 214.92-10.52L214.92-10.52Q214.92-7.44 213.54-5Q212.16-2.56 209.72-1.18Q207.28 0.20 204.24 0.20L204.24 0.20ZM204.24-2.32Q206.48-2.32 208.26-3.34Q210.04-4.36 211.04-6.24Q212.04-8.12 212.04-10.52L212.04-10.52Q212.04-12.92 211.04-14.80Q210.04-16.68 208.26-17.70Q206.48-18.72 204.24-18.72L204.24-18.72Q202.00-18.72 200.22-17.70Q198.44-16.68 197.42-14.80Q196.40-12.92 196.40-10.52L196.40-10.52Q196.40-8.12 197.42-6.24Q198.44-4.36 200.22-3.34Q202.00-2.32 204.24-2.32L204.24-2.32Z M238.44-21.04L241.28-21.04L241.28 0L238.56 0L238.56-3.84Q237.44-1.92 235.48-0.86Q233.52 0.20 231 0.20L231 0.20Q226.88 0.20 224.50-2.10Q222.12-4.40 222.12-8.84L222.12-8.84L222.12-21.04L224.96-21.04L224.96-9.12Q224.96-5.80 226.60-4.08Q228.24-2.36 231.28-2.36L231.28-2.36Q234.60-2.36 236.52-4.38Q238.44-6.40 238.44-10L238.44-10L238.44-21.04Z M253.56-16.92Q254.56-19.04 256.54-20.12Q258.52-21.20 261.44-21.20L261.44-21.20L261.44-18.44L260.76-18.48Q257.44-18.48 255.56-16.44Q253.68-14.40 253.68-10.72L253.68-10.72L253.68 0L250.84 0L250.84-21.04L253.56-21.04L253.56-16.92Z M301.44-28L304.44-28L292.04 0L289.12 0L276.72-28L279.92-28L290.64-3.68L301.44-28Z M309.36 0L309.36-21.04L312.20-21.04L312.20 0L309.36 0ZM310.80-25.64Q309.92-25.64 309.32-26.24Q308.72-26.84 308.72-27.68L308.72-27.68Q308.72-28.48 309.32-29.08Q309.92-29.68 310.80-29.68L310.80-29.68Q311.68-29.68 312.28-29.10Q312.88-28.52 312.88-27.72L312.88-27.72Q312.88-26.84 312.28-26.24Q311.68-25.64 310.80-25.64L310.80-25.64Z M327.36 0.20Q324.80 0.20 322.46-0.54Q320.12-1.28 318.80-2.40L318.80-2.40L320.08-4.64Q321.40-3.60 323.40-2.94Q325.40-2.28 327.56-2.28L327.56-2.28Q330.44-2.28 331.82-3.18Q333.20-4.08 333.20-5.72L333.20-5.72Q333.20-6.88 332.44-7.54Q331.68-8.20 330.52-8.54Q329.36-8.88 327.44-9.20L327.44-9.20Q324.88-9.68 323.32-10.18Q321.76-10.68 320.66-11.88Q319.56-13.08 319.56-15.20L319.56-15.20Q319.56-17.84 321.76-19.52Q323.96-21.20 327.88-21.20L327.88-21.20Q329.92-21.20 331.96-20.66Q334.00-20.12 335.32-19.24L335.32-19.24L334.08-16.96Q331.48-18.76 327.88-18.76L327.88-18.76Q325.16-18.76 323.78-17.80Q322.40-16.84 322.40-15.28L322.40-15.28Q322.40-14.08 323.18-13.36Q323.96-12.64 325.12-12.30Q326.28-11.96 328.32-11.60L328.32-11.60Q330.84-11.12 332.36-10.64Q333.88-10.16 334.96-9Q336.04-7.84 336.04-5.80L336.04-5.80Q336.04-3.04 333.74-1.42Q331.44 0.20 327.36 0.20L327.36 0.20Z M342.88 0L342.88-21.04L345.72-21.04L345.72 0L342.88 0ZM344.32-25.64Q343.44-25.64 342.84-26.24Q342.24-26.84 342.24-27.68L342.24-27.68Q342.24-28.48 342.84-29.08Q343.44-29.68 344.32-29.68L344.32-29.68Q345.20-29.68 345.80-29.10Q346.40-28.52 346.40-27.72L346.40-27.72Q346.40-26.84 345.80-26.24Q345.20-25.64 344.32-25.64L344.32-25.64Z M363.84 0.20Q360.80 0.20 358.36-1.18Q355.92-2.56 354.52-5Q353.12-7.44 353.12-10.52L353.12-10.52Q353.12-13.60 354.52-16.04Q355.92-18.48 358.36-19.84Q360.80-21.20 363.84-21.20L363.84-21.20Q366.88-21.20 369.32-19.84Q371.76-18.48 373.14-16.04Q374.52-13.60 374.52-10.52L374.52-10.52Q374.52-7.44 373.14-5Q371.76-2.56 369.32-1.18Q366.88 0.20 363.84 0.20L363.84 0.20ZM363.84-2.32Q366.08-2.32 367.86-3.34Q369.64-4.36 370.64-6.24Q371.64-8.12 371.64-10.52L371.64-10.52Q371.64-12.92 370.64-14.80Q369.64-16.68 367.86-17.70Q366.08-18.72 363.84-18.72L363.84-18.72Q361.60-18.72 359.82-17.70Q358.04-16.68 357.02-14.80Q356.00-12.92 356.00-10.52L356.00-10.52Q356.00-8.12 357.02-6.24Q358.04-4.36 359.82-3.34Q361.60-2.32 363.84-2.32L363.84-2.32Z M392.64-21.20Q396.60-21.20 398.94-18.90Q401.28-16.60 401.28-12.20L401.28-12.20L401.28 0L398.44 0L398.44-11.92Q398.44-15.20 396.80-16.92Q395.16-18.64 392.12-18.64L392.12-18.64Q388.72-18.64 386.74-16.62Q384.76-14.60 384.76-11.04L384.76-11.04L384.76 0L381.92 0L381.92-21.04L384.64-21.04L384.64-17.16Q385.80-19.08 387.86-20.14Q389.92-21.20 392.64-21.20L392.64-21.20Z"/></g>
</svg>
</g><g opacity="1" transform="rotate(0 59.2515 149.2526)">
<svg width="398.7277" height="36" x="59.2515" y="149.2526" version="1.1" preserveAspectRatio="none" viewBox="1.76 -27.6 310.56 28.040000000000003">
  <g transform="matrix(1 0 0 1 0 0)" class="companyName"><path id="id-D6z1nYkh16" d="M1.76 0L1.76-1.32Q3.24-1.32 3.88-1.50Q4.52-1.68 4.72-2.12Q4.92-2.56 4.92-3.56L4.92-3.56L4.92-22.80Q4.92-23.84 4.72-24.30Q4.52-24.76 3.88-24.92Q3.24-25.08 1.76-25.08L1.76-25.08L1.76-26.40L14.40-26.40Q21.16-26.32 24.52-23.22Q27.88-20.12 27.88-13.56L27.88-13.56Q27.88-6.40 24.18-3.20Q20.48 0 13.08 0L13.08 0L1.76 0ZM13.28-1.56Q18-1.56 20.18-4.44Q22.36-7.32 22.36-13.44L22.36-13.44Q22.36-24.84 13.52-24.84L13.52-24.84Q11.32-24.84 10.56-24.56Q9.80-24.28 9.80-23.40L9.80-23.40L9.80-3.84Q9.80-2.48 10.50-2.02Q11.20-1.56 13.28-1.56L13.28-1.56Z M50.56-3.32Q50.56-2.48 50.74-2.06Q50.92-1.64 51.48-1.48Q52.04-1.32 53.20-1.32L53.20-1.32L53.20 0L43.64 0L43.64-1.32Q44.68-1.32 45.16-1.48Q45.64-1.64 45.80-2Q45.96-2.36 45.96-3.12L45.96-3.12L45.96-12.72Q45.96-14.60 45.06-15.60Q44.16-16.60 42.44-16.60L42.44-16.60Q39.92-16.60 38.36-14.48L38.36-14.48L38.36-3.12Q38.36-2.36 38.50-2Q38.64-1.64 39.10-1.48Q39.56-1.32 40.60-1.32L40.60-1.32L40.60 0L31.16 0L31.16-1.32Q32.36-1.32 32.88-1.48Q33.40-1.64 33.56-2.04Q33.72-2.44 33.72-3.32L33.72-3.32L33.72-23.48Q33.72-24.56 33.48-24.94Q33.24-25.32 32.60-25.32L32.60-25.32L31.40-25.32L31.40-26.68L37.20-27.60L38.36-27.60L38.36-16.44L38.40-16.44Q39.92-17.76 41.68-18.48Q43.44-19.20 45.20-19.20L45.20-19.20Q47.72-19.20 49.14-17.66Q50.56-16.12 50.56-13.32L50.56-13.32L50.56-3.32Z M73.84-1.92L74.24-0.84Q73.36-0.32 72.34 0.04Q71.32 0.40 69.80 0.40L69.80 0.40Q68.16 0.40 67.46-0.12Q66.76-0.64 66.76-2.28L66.76-2.28Q65.40-1.08 63.96-0.34Q62.52 0.40 60.76 0.40L60.76 0.40Q58.60 0.40 57.20-0.64Q55.80-1.68 55.80-3.60L55.80-3.60Q55.80-6.32 58.70-8.38Q61.60-10.44 66.76-11.36L66.76-11.36L66.76-13.80Q66.72-15.48 65.90-16.32Q65.08-17.16 63.04-17.16L63.04-17.16Q61.92-17.16 61.10-16.82Q60.28-16.48 60.28-16.12L60.28-16.12Q60.28-15.76 60.76-15.28L60.76-15.28Q61.08-14.92 61.24-14.64Q61.40-14.36 61.40-13.88L61.40-13.88Q61.40-12.88 60.80-12.30Q60.20-11.72 59.20-11.72L59.20-11.72Q58.16-11.72 57.52-12.36Q56.88-13 56.88-14.04L56.88-14.04Q56.88-15.36 57.86-16.52Q58.84-17.68 60.70-18.38Q62.56-19.08 65.08-19.08L65.08-19.08Q68.28-19.08 69.78-17.76Q71.28-16.44 71.28-13.20L71.28-13.20L71.28-4.32Q71.28-2.76 71.62-2.18Q71.96-1.60 72.72-1.60L72.72-1.60Q73.12-1.60 73.44-1.74Q73.76-1.88 73.84-1.92L73.84-1.92ZM60.32-5Q60.32-2.48 63.28-2.48L63.28-2.48Q64.92-2.48 66.76-3.96L66.76-3.96L66.76-9.80Q63.44-9.08 61.88-7.94Q60.32-6.80 60.32-5L60.32-5Z M95.68-3.32Q95.68-2.48 95.86-2.06Q96.04-1.64 96.60-1.48Q97.16-1.32 98.32-1.32L98.32-1.32L98.32 0L88.76 0L88.76-1.32Q89.84-1.32 90.28-1.42Q90.72-1.52 90.90-1.88Q91.08-2.24 91.08-3.12L91.08-3.12L91.08-12.72Q91.08-14.60 90.18-15.60Q89.28-16.60 87.64-16.60L87.64-16.60Q85.44-16.60 83.48-14.72L83.48-14.72L83.48-3.12Q83.48-2.24 83.66-1.88Q83.84-1.52 84.28-1.42Q84.72-1.32 85.72-1.32L85.72-1.32L85.72 0L76.24 0L76.24-1.32Q77.44-1.32 77.96-1.48Q78.48-1.64 78.64-2.04Q78.80-2.44 78.80-3.32L78.80-3.32L78.80-14.88Q78.80-15.96 78.56-16.34Q78.32-16.72 77.68-16.72L77.68-16.72L76.48-16.72L76.48-18.08L82.24-19L83.36-19L83.36-16.36L83.40-16.36Q85.08-17.80 86.88-18.50Q88.68-19.20 90.32-19.20L90.32-19.20Q92.84-19.20 94.26-17.66Q95.68-16.12 95.68-13.32L95.68-13.32L95.68-3.32Z M118.96-1.92L119.36-0.84Q118.48-0.32 117.46 0.04Q116.44 0.40 114.92 0.40L114.92 0.40Q113.28 0.40 112.58-0.12Q111.88-0.64 111.88-2.28L111.88-2.28Q110.52-1.08 109.08-0.34Q107.64 0.40 105.88 0.40L105.88 0.40Q103.72 0.40 102.32-0.64Q100.92-1.68 100.92-3.60L100.92-3.60Q100.92-6.32 103.82-8.38Q106.72-10.44 111.88-11.36L111.88-11.36L111.88-13.80Q111.84-15.48 111.02-16.32Q110.20-17.16 108.16-17.16L108.16-17.16Q107.04-17.16 106.22-16.82Q105.40-16.48 105.40-16.12L105.40-16.12Q105.40-15.76 105.88-15.28L105.88-15.28Q106.20-14.92 106.36-14.64Q106.52-14.36 106.52-13.88L106.52-13.88Q106.52-12.88 105.92-12.30Q105.32-11.72 104.32-11.72L104.32-11.72Q103.28-11.72 102.64-12.36Q102.00-13 102.00-14.04L102.00-14.04Q102.00-15.36 102.98-16.52Q103.96-17.68 105.82-18.38Q107.68-19.08 110.20-19.08L110.20-19.08Q113.40-19.08 114.90-17.76Q116.40-16.44 116.40-13.20L116.40-13.20L116.40-4.32Q116.40-2.76 116.74-2.18Q117.08-1.60 117.84-1.60L117.84-1.60Q118.24-1.60 118.56-1.74Q118.88-1.88 118.96-1.92L118.96-1.92ZM105.44-5Q105.44-2.48 108.40-2.48L108.40-2.48Q110.04-2.48 111.88-3.96L111.88-3.96L111.88-9.80Q108.56-9.08 107.00-7.94Q105.44-6.80 105.44-5L105.44-5Z M129.20 0.44Q128.12 0.44 127.42 0.26Q126.72 0.08 125.76-0.24L125.76-0.24Q124.84-0.64 124.24-0.64L124.24-0.64Q123.76-0.64 123.50-0.46Q123.24-0.28 123.00 0.12L123.00 0.12L122.24 0.12L121.88-6.48L122.88-6.48Q123.64-4.08 125.30-2.60Q126.96-1.12 128.96-1.12L128.96-1.12Q130.40-1.12 131.20-1.90Q132.00-2.68 132.00-4L132.00-4Q132.00-4.84 131.64-5.38Q131.28-5.92 130.56-6.36Q129.84-6.80 128.20-7.60L128.20-7.60L127.40-8Q124.64-9.36 123.58-10.54Q122.52-11.72 122.52-13.60L122.52-13.60Q122.52-16.28 124.28-17.74Q126.04-19.20 129.08-19.20L129.08-19.20Q130.72-19.20 132.20-18.68L132.20-18.68Q133.08-18.44 133.40-18.44L133.40-18.44Q133.84-18.44 134.00-18.60Q134.16-18.76 134.22-18.94Q134.28-19.12 134.28-19.16L134.28-19.16L135.12-19.16L135.44-13.28L134.44-13.28Q133.96-15.20 132.58-16.40Q131.20-17.60 129.44-17.60L129.44-17.60Q128.20-17.60 127.38-17Q126.56-16.40 126.56-15.40L126.56-15.40Q126.56-13.60 129.28-12.36L129.28-12.36L130.52-11.80Q132.44-10.92 133.60-10.16Q134.76-9.40 135.44-8.30Q136.12-7.20 136.12-5.60L136.12-5.60Q136.12-2.88 134.22-1.22Q132.32 0.44 129.20 0.44L129.20 0.44Z M158.52-3.32Q158.52-2.48 158.70-2.06Q158.88-1.64 159.44-1.48Q160.00-1.32 161.16-1.32L161.16-1.32L161.16 0L151.60 0L151.60-1.32Q152.64-1.32 153.12-1.48Q153.60-1.64 153.76-2Q153.92-2.36 153.92-3.12L153.92-3.12L153.92-12.72Q153.92-14.60 153.02-15.60Q152.12-16.60 150.40-16.60L150.40-16.60Q147.88-16.60 146.32-14.48L146.32-14.48L146.32-3.12Q146.32-2.36 146.46-2Q146.60-1.64 147.06-1.48Q147.52-1.32 148.56-1.32L148.56-1.32L148.56 0L139.12 0L139.12-1.32Q140.32-1.32 140.84-1.48Q141.36-1.64 141.52-2.04Q141.68-2.44 141.68-3.32L141.68-3.32L141.68-23.48Q141.68-24.56 141.44-24.94Q141.20-25.32 140.56-25.32L140.56-25.32L139.36-25.32L139.36-26.68L145.16-27.60L146.32-27.60L146.32-16.44L146.36-16.44Q147.88-17.76 149.64-18.48Q151.40-19.20 153.16-19.20L153.16-19.20Q155.68-19.20 157.10-17.66Q158.52-16.12 158.52-13.32L158.52-13.32L158.52-3.32Z M175.44-19.24Q177.16-19.24 177.98-18.26Q178.80-17.28 178.80-15.88L178.80-15.88Q178.80-14.56 178.12-13.82Q177.44-13.08 176.20-13.08L176.20-13.08Q175.12-13.08 174.50-13.64Q173.88-14.20 173.88-15.20L173.88-15.20Q173.88-15.80 174.06-16.16Q174.24-16.52 174.54-16.84Q174.84-17.16 174.84-17.28L174.84-17.28Q174.84-17.44 174.72-17.56Q174.60-17.68 174.32-17.68L174.32-17.68Q173.60-17.68 172.72-16.76Q171.84-15.84 171.20-14.30Q170.56-12.76 170.56-11L170.56-11L170.56-3.32Q170.56-2.44 170.78-2.04Q171.00-1.64 171.68-1.48Q172.36-1.32 173.88-1.32L173.88-1.32L173.88 0L163.32 0L163.32-1.32Q164.52-1.32 165.04-1.50Q165.56-1.68 165.72-2.08Q165.88-2.48 165.88-3.32L165.88-3.32L165.88-14.88Q165.88-15.96 165.64-16.34Q165.40-16.72 164.76-16.72L164.76-16.72L163.56-16.72L163.56-18.08L169.32-19L170.44-19L170.44-15.52L170.52-15.52Q172.28-19.24 175.44-19.24L175.44-19.24Z M197.64-9.68L197.64-9.16L185.64-9.16Q185.76-5.72 186.96-3.92Q188.16-2.12 191.00-2.12L191.00-2.12Q192.96-2.12 194.24-3.02Q195.52-3.92 196.28-5.72L196.28-5.72L197.52-5Q196.52-2.56 194.72-1.08Q192.92 0.40 189.32 0.40L189.32 0.40Q180.72 0.40 180.72-9.32L180.72-9.32Q180.72-14.24 182.90-16.72Q185.08-19.20 189.28-19.20L189.28-19.20Q193.68-19.20 195.66-16.64Q197.64-14.08 197.64-9.68L197.64-9.68ZM185.60-10.76L192.76-10.76Q192.76-14.32 192.12-15.96Q191.48-17.60 189.44-17.60L189.44-17.60Q187.48-17.60 186.58-15.96Q185.68-14.32 185.60-10.76L185.60-10.76Z M218.72-9.68L218.72-9.16L206.72-9.16Q206.84-5.72 208.04-3.92Q209.24-2.12 212.08-2.12L212.08-2.12Q214.04-2.12 215.32-3.02Q216.60-3.92 217.36-5.72L217.36-5.72L218.60-5Q217.60-2.56 215.80-1.08Q214.00 0.40 210.40 0.40L210.40 0.40Q201.80 0.40 201.80-9.32L201.80-9.32Q201.80-14.24 203.98-16.72Q206.16-19.20 210.36-19.20L210.36-19.20Q214.76-19.20 216.74-16.64Q218.72-14.08 218.72-9.68L218.72-9.68ZM206.68-10.76L213.84-10.76Q213.84-14.32 213.20-15.96Q212.56-17.60 210.52-17.60L210.52-17.60Q208.56-17.60 207.66-15.96Q206.76-14.32 206.68-10.76L206.68-10.76Z M232.48 0L232.48-1.32Q233.96-1.32 234.60-1.50Q235.24-1.68 235.44-2.12Q235.64-2.56 235.64-3.56L235.64-3.56L235.64-22.80Q235.64-23.84 235.44-24.28Q235.24-24.72 234.60-24.90Q233.96-25.08 232.48-25.08L232.48-25.08L232.48-26.40L243.96-26.40Q249.76-26.40 251.74-24.08Q253.72-21.76 253.72-18.80L253.72-18.80Q253.72-15.52 251.44-13Q249.16-10.48 242.84-10.48L242.84-10.48L240.52-10.48L240.52-3.56Q240.52-2.52 240.76-2.08Q241.00-1.64 241.76-1.48Q242.52-1.32 244.28-1.32L244.28-1.32L244.28 0L232.48 0ZM240.52-12.08L242.92-12.08Q245.52-12.08 247.02-13.82Q248.52-15.56 248.52-18.68L248.52-18.68Q248.52-21.64 247.08-23.24Q245.64-24.84 242.76-24.84L242.76-24.84Q241.40-24.84 240.96-24.50Q240.52-24.16 240.52-23.44L240.52-23.44L240.52-12.08Z M274.84-1.92L275.24-0.84Q274.36-0.32 273.34 0.04Q272.32 0.40 270.80 0.40L270.80 0.40Q269.16 0.40 268.46-0.12Q267.76-0.64 267.76-2.28L267.76-2.28Q266.40-1.08 264.96-0.34Q263.52 0.40 261.76 0.40L261.76 0.40Q259.60 0.40 258.20-0.64Q256.80-1.68 256.80-3.60L256.80-3.60Q256.80-6.32 259.70-8.38Q262.60-10.44 267.76-11.36L267.76-11.36L267.76-13.80Q267.72-15.48 266.90-16.32Q266.08-17.16 264.04-17.16L264.04-17.16Q262.92-17.16 262.10-16.82Q261.28-16.48 261.28-16.12L261.28-16.12Q261.28-15.76 261.76-15.28L261.76-15.28Q262.08-14.92 262.24-14.64Q262.40-14.36 262.40-13.88L262.40-13.88Q262.40-12.88 261.80-12.30Q261.20-11.72 260.20-11.72L260.20-11.72Q259.16-11.72 258.52-12.36Q257.88-13 257.88-14.04L257.88-14.04Q257.88-15.36 258.86-16.52Q259.84-17.68 261.70-18.38Q263.56-19.08 266.08-19.08L266.08-19.08Q269.28-19.08 270.78-17.76Q272.28-16.44 272.28-13.20L272.28-13.20L272.28-4.32Q272.28-2.76 272.62-2.18Q272.96-1.60 273.72-1.60L273.72-1.60Q274.12-1.60 274.44-1.74Q274.76-1.88 274.84-1.92L274.84-1.92ZM261.32-5Q261.32-2.48 264.28-2.48L264.28-2.48Q265.92-2.48 267.76-3.96L267.76-3.96L267.76-9.80Q264.44-9.08 262.88-7.94Q261.32-6.80 261.32-5L261.32-5Z M283.28 0.44Q281.08 0.44 279.84-0.78Q278.60-2 278.60-4.24L278.60-4.24L278.60-17.20L276.24-17.20L276.24-18.52Q278.32-19.16 279.56-20.74Q280.80-22.32 281.52-25.08L281.52-25.08L283.20-25.08L283.20-18.80L287.48-18.80L287.48-17.20L283.20-17.20L283.20-5.64Q283.20-3.84 283.88-2.96Q284.56-2.08 286.00-2.08L286.00-2.08Q287.08-2.08 288.00-2.48L288.00-2.48L288.44-1.48Q286.96-0.52 285.90-0.04Q284.84 0.44 283.28 0.44L283.28 0.44Z M294.84-21.68Q293.68-21.68 292.96-22.42Q292.24-23.16 292.24-24.28L292.24-24.28Q292.24-25.40 292.96-26.16Q293.68-26.92 294.84-26.92L294.84-26.92Q296.04-26.92 296.76-26.16Q297.48-25.40 297.48-24.28L297.48-24.28Q297.48-23.16 296.72-22.42Q295.96-21.68 294.84-21.68L294.84-21.68ZM290.08 0L290.08-1.32Q291.28-1.32 291.80-1.50Q292.32-1.68 292.48-2.08Q292.64-2.48 292.64-3.32L292.64-3.32L292.64-14.88Q292.64-16 292.42-16.36Q292.20-16.72 291.52-16.72L291.52-16.72L290.32-16.72L290.32-18.08L296.20-19L297.32-19L297.32-3.32Q297.32-2.44 297.48-2.04Q297.64-1.64 298.16-1.48Q298.68-1.32 299.88-1.32L299.88-1.32L299.88 0L290.08 0Z M302.52 0L302.52-1.32Q303.72-1.32 304.26-1.50Q304.80-1.68 304.96-2.08Q305.12-2.48 305.12-3.32L305.12-3.32L305.12-23.44Q305.12-24.56 304.88-24.94Q304.64-25.32 303.96-25.32L303.96-25.32L302.76-25.32L302.76-26.68L308.64-27.60L309.76-27.60L309.76-3.32Q309.76-2.48 309.94-2.06Q310.12-1.64 310.66-1.48Q311.20-1.32 312.32-1.32L312.32-1.32L312.32 0L302.52 0Z"/></g>
</svg>
</g></svg></svg>